<?xml version="1.0" encoding="UTF-8" standalone="no"?>
<svg
   xmlns:dc="http://purl.org/dc/elements/1.1/"
   xmlns:cc="http://creativecommons.org/ns#"
   xmlns:rdf="http://www.w3.org/1999/02/22-rdf-syntax-ns#"
   xmlns:svg="http://www.w3.org/2000/svg"
   xmlns="http://www.w3.org/2000/svg"
   xmlns:xlink="http://www.w3.org/1999/xlink"
   xmlns:sodipodi="http://sodipodi.sourceforge.net/DTD/sodipodi-0.dtd"
   xmlns:inkscape="http://www.inkscape.org/namespaces/inkscape"
   width="512"
   height="512"
   viewBox="0 0 135.46666 135.46667"
   version="1.1"
   id="svg977"
   inkscape:version="1.0.1 (3bc2e813f5, 2020-09-07)"
   sodipodi:docname="logo_transparent.svg"
   inkscape:export-filename="/home/cluser/Desktop/sgcraft/png/logo_transparent.png"
   inkscape:export-xdpi="96"
   inkscape:export-ydpi="96">
  <defs
     id="defs971">
    <linearGradient
       inkscape:collect="always"
       xlink:href="#linearGradient986"
       id="linearGradient1119"
       gradientUnits="userSpaceOnUse"
       x1="489.57004"
       y1="227.2995"
       x2="244.73633"
       y2="397.34381" />
    <linearGradient
       id="linearGradient986"
       inkscape:collect="always">
      <stop
         id="stop982"
         offset="0"
         style="stop-color:#c80525;stop-opacity:1" />
      <stop
         id="stop984"
         offset="1"
         style="stop-color:#210011;stop-opacity:1" />
    </linearGradient>
    <filter
       id="filter2623"
       inkscape:label="Drop Shadow"
       style="color-interpolation-filters:sRGB">
      <feFlood
         id="feFlood2613"
         result="flood"
         flood-color="rgb(0,0,0)"
         flood-opacity="0.498039" />
      <feComposite
         id="feComposite2615"
         result="composite1"
         operator="in"
         in2="SourceGraphic"
         in="flood" />
      <feGaussianBlur
         id="feGaussianBlur2617"
         result="blur"
         stdDeviation="2.71028"
         in="composite1" />
      <feOffset
         id="feOffset2619"
         result="offset"
         dy="0.575197"
         dx="-13.9173" />
      <feComposite
         id="feComposite2621"
         result="composite2"
         operator="over"
         in2="offset"
         in="SourceGraphic" />
    </filter>
    <linearGradient
       inkscape:collect="always"
       xlink:href="#linearGradient1059"
       id="linearGradient1111"
       x1="68.328476"
       y1="64.107468"
       x2="69.619904"
       y2="73.185257"
       gradientUnits="userSpaceOnUse" />
    <linearGradient
       inkscape:collect="always"
       id="linearGradient1059">
      <stop
         style="stop-color:#cccccc;stop-opacity:1"
         offset="0"
         id="stop1055" />
      <stop
         style="stop-color:#666666;stop-opacity:1"
         offset="1"
         id="stop1057" />
    </linearGradient>
    <linearGradient
       inkscape:collect="always"
       xlink:href="#linearGradient986"
       id="linearGradient1089"
       gradientUnits="userSpaceOnUse"
       x1="46.613251"
       y1="66.194496"
       x2="36.767014"
       y2="105.03194" />
    <linearGradient
       inkscape:collect="always"
       xlink:href="#linearGradient1059"
       id="linearGradient1061"
       x1="86.455734"
       y1="69.767616"
       x2="78.451126"
       y2="97.475838"
       gradientUnits="userSpaceOnUse" />
    <linearGradient
       inkscape:collect="always"
       xlink:href="#linearGradient986"
       id="linearGradient1636"
       gradientUnits="userSpaceOnUse"
       x1="46.613251"
       y1="66.194496"
       x2="36.767014"
       y2="105.03194" />
    <linearGradient
       inkscape:collect="always"
       xlink:href="#linearGradient986"
       id="linearGradient1638"
       gradientUnits="userSpaceOnUse"
       x1="46.613251"
       y1="66.194496"
       x2="36.767014"
       y2="105.03194" />
    <linearGradient
       inkscape:collect="always"
       xlink:href="#linearGradient1059"
       id="linearGradient1640"
       gradientUnits="userSpaceOnUse"
       x1="86.455734"
       y1="69.767616"
       x2="78.451126"
       y2="97.475838" />
    <linearGradient
       inkscape:collect="always"
       xlink:href="#linearGradient1059"
       id="linearGradient1642"
       gradientUnits="userSpaceOnUse"
       x1="86.455734"
       y1="69.767616"
       x2="78.451126"
       y2="97.475838" />
    <linearGradient
       inkscape:collect="always"
       xlink:href="#linearGradient1059"
       id="linearGradient1644"
       gradientUnits="userSpaceOnUse"
       x1="86.455734"
       y1="69.767616"
       x2="78.451126"
       y2="97.475838" />
    <linearGradient
       inkscape:collect="always"
       xlink:href="#linearGradient1059"
       id="linearGradient1646"
       gradientUnits="userSpaceOnUse"
       x1="86.455734"
       y1="69.767616"
       x2="78.451126"
       y2="97.475838" />
    <linearGradient
       inkscape:collect="always"
       xlink:href="#linearGradient1059"
       id="linearGradient1648"
       gradientUnits="userSpaceOnUse"
       x1="86.455734"
       y1="69.767616"
       x2="78.451126"
       y2="97.475838" />
  </defs>
  <sodipodi:namedview
     id="base"
     pagecolor="#ffffff"
     bordercolor="#666666"
     borderopacity="1.0"
     inkscape:pageopacity="0.0"
     inkscape:pageshadow="2"
     inkscape:zoom="0.49497475"
     inkscape:cx="-110.42161"
     inkscape:cy="122.64486"
     inkscape:document-units="mm"
     inkscape:current-layer="layer1"
     inkscape:document-rotation="0"
     showgrid="false"
     units="px"
     inkscape:window-width="1312"
     inkscape:window-height="706"
     inkscape:window-x="0"
     inkscape:window-y="0"
     inkscape:window-maximized="0" />
  <metadata
     id="metadata974">
    <rdf:RDF>
      <cc:Work
         rdf:about="">
        <dc:format>image/svg+xml</dc:format>
        <dc:type
           rdf:resource="http://purl.org/dc/dcmitype/StillImage" />
        <dc:title />
      </cc:Work>
    </rdf:RDF>
  </metadata>
  <g
     inkscape:label="Layer 1"
     inkscape:groupmode="layer"
     id="layer1">
    <g
       id="g879"
       transform="translate(0,-0.63699371)"
       inkscape:export-filename="/home/cluser/Desktop/sgcraft/png/g879.png"
       inkscape:export-xdpi="96"
       inkscape:export-ydpi="96">
      <g
         id="g1130"
         transform="translate(-1.4055267)">
        <g
           id="g1079"
           style="fill:url(#linearGradient1089);fill-opacity:1">
          <path
             d="m 35.32262,83.245008 c 0.0776,0.06988 0.15503,0.122221 0.25193,0.209528 l 0.38757,0.331744 1.49218,-0.803173 -0.60074,-0.541261 c -0.0776,-0.0873 -0.17442,-0.174607 -0.29068,-0.279372 -0.85268,-0.768242 -2.44175,-1.134906 -4.72847,-1.134906 h -3.89516 c -1.24026,0.01742 -2.42237,0.174598 -3.52697,0.471419 h -0.0388 l -0.0193,0.01742 c -0.65888,0.27936 -1.18212,0.663487 -1.5697,1.134915 -0.48447,0.593645 -0.73639,1.292053 -0.73639,2.112686 0,0.733329 0.21316,1.396815 0.6395,1.972999 0.34882,0.453969 0.83329,0.855555 1.45342,1.169837 0.79454,0.349205 1.76348,0.576184 2.86808,0.698408 l 0.17442,0.01742 0.2713,0.01742 h 0.0193 c 0,0 0.0193,0 0.0388,0 h 0.7364 c 0.52323,0 1.10459,0 1.72473,0.01742 h 2.49988 c 0.71701,0.01742 1.43403,0.139669 2.13168,0.349205 1.04646,0.401586 1.5697,1.082534 1.5697,2.060302 0,0.506351 -0.11628,0.942849 -0.34883,1.274593 -0.17441,0.27937 -0.44571,0.506349 -0.81391,0.680947 -0.65889,0.26191 -1.51156,0.384125 -2.51927,0.384125 h -5.1548 c -0.31006,0 -0.67826,-0.03494 -1.08522,-0.0873 C 25.45874,93.1797 24.858,92.952719 24.45104,92.638427 24.296,92.516206 24.17972,92.393987 24.08284,92.324144 l -0.4651,-0.401576 -1.25963,1.012691 0.50385,0.453958 c 0.0969,0.0873 0.23255,0.209528 0.38758,0.349205 0.58136,0.523804 1.43404,0.873014 2.53864,1.082534 0.56199,0.0873 1.08523,0.12222 1.55031,0.12222 h 5.1548 c 1.2015,0 2.24796,-0.13969 3.13939,-0.45397 h 0.0193 c 0.65889,-0.27936 1.18212,-0.663485 1.55032,-1.169825 0.44572,-0.593654 0.67826,-1.309522 0.67826,-2.147607 0,-0.855554 -0.25192,-1.588883 -0.75578,-2.182528 -0.40696,-0.488888 -0.94956,-0.890474 -1.64721,-1.169836 l -0.0388,-0.01742 c -1.16274,-0.296821 -2.36422,-0.453958 -3.5851,-0.471419 0,0 -0.29069,0 -0.87205,0 l -1.76349,-0.01742 c -0.34882,0 -0.69764,0 -1.04646,0 -1.06584,-0.0873 -2.05417,-0.261911 -2.96497,-0.523812 -0.50386,-0.209518 -0.85268,-0.436506 -1.06584,-0.715868 -0.25194,-0.331744 -0.38758,-0.750791 -0.38758,-1.204749 0,-0.907937 0.52322,-1.571424 1.56969,-1.955549 0.85267,-0.209518 1.72472,-0.331742 2.63554,-0.349203 h 3.87578 c 1.62784,0 2.79057,0.226988 3.48821,0.680947 z"
             style="font-style:normal;font-variant:normal;font-weight:bold;font-stretch:normal;font-size:17.8395px;line-height:1.25;font-family:Gearus;-inkscape-font-specification:'Gearus, Bold';font-variant-ligatures:normal;font-variant-caps:normal;font-variant-numeric:normal;font-variant-east-asian:normal;fill:url(#linearGradient1636);fill-opacity:1;stroke:none;stroke-width:0.287415"
             id="path1591" />
          <path
             d="m 50.92265,94.943346 c 1.0077,0 1.99603,-0.1746 2.96498,-0.47143 v -0.0174 c 0.69764,-0.29683 1.24025,-0.680951 1.64721,-1.187292 0.50386,-0.611114 0.75578,-1.344434 0.75578,-2.217449 V 87.22599 h -8.68177 l -0.2713,1.536502 h 7.24772 v 2.287283 c 0,0.960309 -0.52323,1.641256 -1.56969,2.025382 -0.69765,0.209528 -1.39529,0.314283 -2.13169,0.331742 h -5.01914 c -1.64722,0 -2.73243,-0.366664 -3.23629,-1.134906 -0.25192,-0.401586 -0.3682,-0.803172 -0.38758,-1.204758 -0.0193,-2.304743 -0.0193,-4.365056 -0.0193,-6.180909 0,-0.960318 0.54262,-1.623805 1.60845,-2.007931 0.87206,-0.209519 1.74412,-0.314282 2.63554,-0.314282 h 3.79828 c 0.1744,0 0.56198,0.03494 1.18212,0.104759 0.83328,0.104759 1.41465,0.209518 1.7441,0.279361 l 0.15503,0.0873 c 0.0193,0 0.0581,0.01742 0.0775,0.03494 0.23256,0.139669 0.44572,0.366664 0.65889,0.646026 0.0193,0.05236 0.0581,0.0873 0.0776,0.139683 l 0.29068,0.523802 1.58908,-0.628565 -0.31006,-0.576184 c -0.0193,-0.01742 -0.0193,-0.01742 -0.0388,-0.03494 -0.27131,-0.506351 -0.65889,-0.925397 -1.14336,-1.274601 -0.0969,-0.0873 -0.19379,-0.139669 -0.27131,-0.192057 h -0.0193 C 53.2677,81.237116 51.93054,81.027598 50.26396,81.027598 h -3.79828 c -1.24024,0 -2.42236,0.139669 -3.54633,0.436497 l -0.0193,0.01742 h -0.0388 c -0.67828,0.279372 -1.22088,0.663487 -1.60846,1.169838 -0.48447,0.593643 -0.7364,1.326973 -0.7364,2.182528 0,1.850784 0,3.96346 0.0193,6.303134 0,0.628565 0.19379,1.257131 0.58137,1.868236 0.32944,0.576192 0.81391,1.0127 1.41467,1.344445 0.85266,0.40157 1.97664,0.6111 3.33317,0.6111 z"
             style="font-style:normal;font-variant:normal;font-weight:bold;font-stretch:normal;font-size:17.8395px;line-height:1.25;font-family:Gearus;-inkscape-font-specification:'Gearus, Bold';font-variant-ligatures:normal;font-variant-caps:normal;font-variant-numeric:normal;font-variant-east-asian:normal;fill:url(#linearGradient1638);fill-opacity:1;stroke:none;stroke-width:0.287415"
             id="path1593" />
        </g>
        <g
           id="g931"
           style="fill:url(#linearGradient1061);fill-opacity:1">
          <path
             d="m 66.73584,83.733898 q -2.22857,0 -3.50759,1.344434 -1.27901,1.344434 -1.27901,3.684109 0,2.322202 1.18212,3.684098 1.20149,1.344434 3.5851,1.344434 0.91082,0 1.72473,-0.139669 0.81392,-0.139684 1.58908,-0.349205 v 1.361897 q -0.77516,0.2619 -1.60845,0.38412 -0.81392,0.12222 -1.95728,0.12222 -2.11231,0 -3.52697,-0.78571 -1.41467,-0.785699 -2.13168,-2.234897 -0.69764,-1.449199 -0.69764,-3.404737 0,-1.885706 0.75577,-3.317445 0.77516,-1.449198 2.26734,-2.252361 1.49218,-0.820633 3.62386,-0.820633 2.18982,0 3.81765,0.733331 l -0.69764,1.326973 q -0.6395,-0.261912 -1.43404,-0.471441 -0.77515,-0.209518 -1.70535,-0.209518 z"
             style="font-style:normal;font-variant:normal;font-weight:normal;font-stretch:normal;font-size:17.8395px;line-height:1.25;font-family:sans-serif;-inkscape-font-specification:'sans-serif, Normal';font-variant-ligatures:normal;font-variant-caps:normal;font-variant-numeric:normal;font-variant-east-asian:normal;fill:url(#linearGradient1640);fill-opacity:1;stroke:none;stroke-width:0.287415"
             id="path1595" />
          <path
             d="m 76.87103,82.52914 q 2.5774,0 3.79827,0.890474 1.24026,0.873005 1.24026,2.653947 0,0.995231 -0.40696,1.658728 -0.40696,0.663487 -1.04646,1.065063 -0.62013,0.384125 -1.31777,0.611114 l 3.79827,5.58726 h -2.03479 l -3.35256,-5.150762 h -2.75181 v 5.150762 h -1.7441 V 82.52914 Z m -0.0969,1.361904 h -1.97665 v 4.626946 h 2.07355 q 1.68596,0 2.46112,-0.593643 0.77516,-0.611106 0.77516,-1.780942 0,-1.22221 -0.81391,-1.72856 -0.81392,-0.523801 -2.51927,-0.523801 z"
             style="font-style:normal;font-variant:normal;font-weight:normal;font-stretch:normal;font-size:17.8395px;line-height:1.25;font-family:sans-serif;-inkscape-font-specification:'sans-serif, Normal';font-variant-ligatures:normal;font-variant-caps:normal;font-variant-numeric:normal;font-variant-east-asian:normal;fill:url(#linearGradient1642);fill-opacity:1;stroke:none;stroke-width:0.287415"
             id="path1597" />
          <path
             d="m 93.78884,94.995726 -1.66659,-3.8587 h -5.48424 l -1.64721,3.8587 h -1.76348 l 5.40672,-12.51896 h 1.5697 l 5.38734,12.51896 z M 91.59902,89.740209 90.0487,85.968808 q -0.0581,-0.139684 -0.19378,-0.506351 -0.13565,-0.366664 -0.2713,-0.750789 -0.11629,-0.401588 -0.1938,-0.611106 -0.13565,0.541262 -0.31006,1.065073 -0.17442,0.50634 -0.29068,0.803173 l -1.5697,3.771401 z"
             style="font-style:normal;font-variant:normal;font-weight:normal;font-stretch:normal;font-size:17.8395px;line-height:1.25;font-family:sans-serif;-inkscape-font-specification:'sans-serif, Normal';font-variant-ligatures:normal;font-variant-caps:normal;font-variant-numeric:normal;font-variant-east-asian:normal;fill:url(#linearGradient1644);fill-opacity:1;stroke:none;stroke-width:0.287415"
             id="path1599" />
          <path
             d="M 99.23433,94.995726 H 97.49022 V 82.52914 h 7.7322 v 1.379354 h -5.98809 v 4.417439 h 5.61989 v 1.379356 h -5.61989 z"
             style="font-style:normal;font-variant:normal;font-weight:normal;font-stretch:normal;font-size:17.8395px;line-height:1.25;font-family:sans-serif;-inkscape-font-specification:'sans-serif, Normal';font-variant-ligatures:normal;font-variant-caps:normal;font-variant-numeric:normal;font-variant-east-asian:normal;fill:url(#linearGradient1646);fill-opacity:1;stroke:none;stroke-width:0.287415"
             id="path1601" />
          <path
             d="m 111.92752,94.995726 h -1.74411 V 83.908494 h -4.3215 V 82.52914 h 10.36772 v 1.379354 h -4.30211 z"
             style="font-style:normal;font-variant:normal;font-weight:normal;font-stretch:normal;font-size:17.8395px;line-height:1.25;font-family:sans-serif;-inkscape-font-specification:'sans-serif, Normal';font-variant-ligatures:normal;font-variant-caps:normal;font-variant-numeric:normal;font-variant-east-asian:normal;fill:url(#linearGradient1648);fill-opacity:1;stroke:none;stroke-width:0.287415"
             id="path1603" />
        </g>
      </g>
      <g
         inkscape:export-xdpi="96"
         inkscape:export-ydpi="96"
         id="g1117"
         transform="translate(1.1170102)">
        <path
           d="m 380.61198,225.11177 c 10.43728,18.83524 20.7309,49.51757 53.14258,69.40821 -12.20644,18.53659 -27.05199,34.36349 -48.75781,43.14843 -6.06915,-15.84575 -13.60663,-30.50385 -23.51563,-42.97851 l 13.01758,-9.86524 0.52344,10.09961 5.54101,-2.04101 10.23633,-31.29883 -38.18945,5.76562 5.92187,6.04883 3.1875,-0.19336 -10.80664,9.92383 C 328.66381,262.12943 296.49889,250.4577 247.86003,255.3188 c 40.28947,2.91473 69.4768,17.9399 88.90234,40.80469 l -107.83594,99.02344 116.08789,-87.97656 c 15.83957,24.21738 22.82553,55.09177 22.13282,88.83398 64.93666,-19.62765 102.99485,-55.82399 122.54296,-103.42969 -30.13468,-2.51508 -58.3967,0.97979 -109.07812,-67.46289 z"
           style="fill:url(#linearGradient1119);fill-opacity:1;stroke:none;stroke-width:0.999999px;stroke-linecap:butt;stroke-linejoin:miter;stroke-opacity:1"
           id="path847"
           transform="matrix(0.18466522,0,0,0.18466522,-2.7780549e-7,3.5592034e-6)" />
        <path
           style="fill:url(#linearGradient1111);fill-opacity:1;stroke:none;stroke-width:0.132292;stroke-linecap:butt;stroke-linejoin:miter;stroke-miterlimit:4;stroke-dasharray:none;stroke-opacity:0.752333"
           d="M 68.328473,73.657401 C 78.353703,70.592787 86.43043,64.936014 90.957897,54.557535 87.758379,62.758483 81.662398,69.740997 68.328473,73.657401 Z"
           id="path868"
           sodipodi:nodetypes="ccc" />
      </g>
    </g>
  </g>
</svg>
